<?xml version="1.0" standalone="no"?>
<!DOCTYPE svg PUBLIC "-//W3C//DTD SVG 20010904//EN"
 "http://www.w3.org/TR/2001/REC-SVG-20010904/DTD/svg10.dtd">
<svg version="1.0" xmlns="http://www.w3.org/2000/svg"
 width="700.000000pt" height="700.000000pt" viewBox="0 0 700.000000 700.000000"
 preserveAspectRatio="xMidYMid meet">
<metadata>
Created by potrace 1.14, written by Peter Selinger 2001-2017
</metadata>
<g transform="translate(0.000000,700.000000) scale(0.100000,-0.100000)"
fill="#000000" stroke="none">
<path d="M2107 6812 c10 -7 103 -61 206 -120 103 -59 202 -115 220 -126 18
-10 232 -133 477 -273 245 -141 453 -261 463 -268 16 -11 31 -5 110 39 75 43
427 245 772 444 33 19 80 46 105 60 25 14 115 65 200 115 85 49 174 100 198
114 23 13 42 25 42 26 0 1 -632 2 -1405 2 -1154 0 -1402 -2 -1388 -13z"/>
<path d="M2048 6717 c12 -14 69 -111 164 -277 11 -19 94 -161 183 -315 89
-154 172 -296 183 -315 17 -30 43 -74 136 -233 10 -18 111 -192 224 -387 113
-195 225 -388 249 -427 23 -40 43 -75 43 -78 0 -2 15 -28 33 -57 19 -29 37
-60 41 -68 3 -8 38 -69 76 -135 l70 -120 0 812 0 811 -47 28 c-27 16 -69 40
-94 54 -36 20 -388 222 -582 334 -52 30 -371 213 -518 298 -75 43 -145 81
-155 85 -17 6 -17 5 -6 -10z"/>
<path d="M4876 6695 c-32 -19 -59 -35 -61 -35 -1 0 -41 -22 -89 -50 -47 -27
-125 -72 -172 -100 -48 -27 -88 -50 -90 -50 -1 0 -48 -27 -103 -60 -56 -33
-105 -60 -110 -60 -5 0 -11 -3 -13 -7 -1 -5 -16 -15 -33 -24 -58 -30 -650
-371 -659 -379 -8 -8 -12 -1607 -4 -1615 2 -2 15 17 28 43 14 26 49 87 77 135
29 48 53 90 53 93 0 2 11 21 24 42 31 50 134 226 606 1042 323 559 531 917
540 930 5 8 19 33 31 55 12 22 28 48 37 58 24 27 1 20 -62 -18z"/>
<path d="M6031 5975 c-1 -5 -24 -35 -53 -65 -56 -60 -85 -92 -228 -249 -52
-58 -102 -112 -110 -121 -8 -9 -51 -56 -95 -104 -44 -48 -91 -100 -105 -115
-14 -15 -47 -52 -74 -82 -27 -30 -74 -81 -105 -115 -54 -58 -215 -235 -236
-258 -5 -7 -35 -39 -65 -71 -67 -73 -218 -240 -243 -269 -10 -11 -58 -63 -106
-116 -48 -52 -140 -153 -205 -225 -66 -71 -140 -153 -165 -180 -96 -105 -96
-105 -75 -100 23 5 -17 -8 1189 375 176 56 327 105 335 110 10 5 22 40 32 92
9 46 37 178 63 293 25 116 48 224 51 240 3 17 11 58 19 93 8 35 26 118 41 185
14 67 27 131 30 142 5 22 23 107 30 145 3 14 11 53 19 88 8 34 17 75 20 91 3
16 14 68 26 116 11 48 18 92 15 98 -2 7 -5 8 -5 2z"/>
<path d="M966 5943 c3 -16 16 -80 30 -143 14 -63 28 -126 30 -140 2 -14 8 -43
14 -65 5 -22 18 -83 29 -135 19 -86 86 -406 97 -455 2 -11 6 -31 9 -45 3 -14
7 -34 9 -45 3 -11 21 -96 41 -190 21 -93 45 -206 54 -250 l16 -80 125 -42 c69
-23 217 -71 330 -107 113 -36 403 -128 644 -205 242 -78 441 -140 442 -138 1
1 -34 43 -78 92 -97 107 -223 247 -258 285 -14 15 -61 67 -105 116 -44 48 -91
99 -104 113 -13 15 -51 57 -85 95 -33 38 -72 81 -86 96 -14 15 -59 64 -100
110 -41 46 -86 95 -100 110 -14 15 -61 67 -105 115 -44 49 -85 93 -90 99 -6 6
-96 106 -200 221 -104 116 -206 228 -227 250 -20 22 -45 49 -55 61 -28 33
-163 182 -215 238 -26 28 -48 54 -48 59 0 4 -4 7 -9 7 -5 0 -8 -12 -5 -27z"/>
<path d="M860 5920 c0 -8 -16 -64 -36 -125 -54 -166 -285 -878 -374 -1150 -43
-132 -109 -332 -145 -445 -37 -113 -75 -230 -85 -260 -10 -30 -62 -190 -115
-355 -54 -165 -100 -304 -103 -309 -10 -17 35 19 119 95 46 42 104 93 129 115
24 21 51 46 60 55 8 8 53 49 100 90 46 41 94 83 106 94 12 11 57 52 100 90 43
39 128 115 189 169 60 54 131 117 156 140 25 23 81 73 124 111 43 39 89 80
103 92 23 20 24 24 14 65 -15 59 -30 127 -37 165 -3 18 -21 103 -40 190 -18
87 -36 169 -39 183 -6 34 -37 178 -97 455 -49 228 -77 361 -85 400 -17 92 -43
172 -44 135z"/>
<path d="M6123 5918 c0 -7 -8 -47 -17 -88 -9 -41 -18 -84 -21 -95 -2 -11 -31
-146 -63 -300 -33 -154 -83 -388 -111 -520 -29 -132 -63 -292 -77 -355 -14
-63 -30 -137 -35 -164 l-9 -49 52 -47 c29 -26 168 -149 308 -275 140 -125 262
-234 270 -244 8 -9 31 -29 50 -45 28 -23 156 -137 214 -191 6 -6 72 -64 146
-130 74 -66 141 -125 148 -132 15 -14 26 -17 19 -5 -3 4 -53 156 -111 337 -59
182 -113 348 -121 370 -7 22 -73 222 -145 445 -129 397 -362 1113 -442 1360
-39 119 -54 156 -55 128z"/>
<path d="M1274 4287 c-6 -7 -51 -48 -99 -92 -49 -44 -96 -87 -105 -95 -9 -8
-52 -46 -96 -85 -43 -38 -81 -73 -84 -76 -3 -3 -30 -27 -60 -54 -48 -42 -193
-171 -224 -200 -6 -5 -51 -46 -101 -90 -49 -44 -103 -93 -120 -108 -16 -15
-89 -80 -162 -145 -72 -64 -131 -118 -130 -119 2 -1 118 22 317 65 96 21 510
109 760 162 74 16 189 41 255 55 66 15 131 29 145 31 14 3 88 19 165 35 77 17
149 32 160 35 11 2 137 29 280 60 143 30 271 58 284 60 14 3 97 21 185 40 89
19 169 36 178 37 10 1 14 4 10 8 -7 7 -26 13 -392 129 -124 39 -279 89 -345
110 -66 21 -235 75 -375 120 -140 45 -289 92 -330 106 -84 27 -100 29 -116 11z"/>
<path d="M5675 4295 c-5 -2 -77 -25 -160 -50 -82 -26 -175 -55 -205 -65 -30
-10 -136 -44 -235 -75 -99 -31 -270 -85 -380 -120 -110 -35 -238 -76 -285 -91
-47 -14 -118 -37 -159 -50 -40 -13 -81 -24 -90 -24 -36 -1 16 -18 119 -40 140
-29 162 -34 325 -69 314 -67 421 -90 450 -95 35 -6 202 -43 260 -56 22 -6 51
-12 65 -14 14 -3 90 -19 170 -36 80 -17 156 -34 170 -36 14 -2 57 -11 95 -20
39 -9 77 -17 85 -19 8 -2 51 -10 95 -20 44 -9 118 -25 165 -35 47 -10 96 -21
110 -23 14 -3 112 -24 219 -47 107 -23 205 -44 219 -46 21 -4 83 -18 181 -40
24 -5 23 -4 -6 23 -16 15 -46 42 -65 58 -19 17 -75 66 -124 111 -49 44 -109
98 -134 120 -24 21 -51 46 -60 54 -56 51 -125 113 -189 170 -41 36 -84 74 -95
85 -12 11 -60 54 -106 95 -47 41 -90 80 -96 85 -6 6 -51 46 -100 90 -49 44
-114 104 -145 133 -52 48 -68 56 -94 47z"/>
<path d="M2730 2954 c-157 -69 -298 -131 -315 -139 -16 -7 -113 -50 -215 -95
-102 -45 -203 -90 -225 -100 -22 -10 -74 -32 -115 -50 -41 -18 -97 -43 -125
-55 -110 -50 -326 -145 -330 -145 -2 0 -36 -15 -77 -34 -40 -18 -107 -48 -148
-66 -41 -18 -93 -40 -115 -50 -22 -10 -164 -73 -315 -140 -151 -67 -279 -126
-284 -131 -6 -5 7 -9 35 -10 24 -1 53 -3 64 -4 11 -1 52 -6 90 -9 39 -4 84 -9
100 -11 17 -2 61 -7 99 -10 38 -4 79 -9 90 -10 12 -2 53 -7 91 -10 39 -3 89
-8 113 -10 72 -8 125 -14 187 -20 60 -6 112 -12 195 -21 55 -6 107 -11 185
-19 33 -3 78 -8 100 -10 89 -10 231 -25 242 -25 15 0 49 46 565 751 387 528
402 549 396 549 -2 0 -131 -57 -288 -126z"/>
<path d="M3987 3068 c4 -7 88 -123 187 -258 99 -135 240 -328 315 -430 74
-102 167 -228 205 -281 39 -53 107 -146 151 -207 l80 -112 75 6 c41 3 86 7
100 9 14 2 52 6 85 9 162 16 345 35 385 41 14 2 57 6 95 9 39 4 86 9 105 11
19 3 62 7 95 10 72 7 124 12 185 19 63 7 134 14 210 22 36 3 72 7 80 9 27 5
175 18 195 17 17 -1 16 1 -5 13 -14 7 -124 57 -245 110 -121 53 -233 103 -250
111 -113 51 -507 224 -510 224 -2 0 -42 18 -89 40 -47 22 -88 40 -91 40 -3 0
-35 14 -72 31 -38 17 -81 37 -98 44 -94 42 -566 250 -600 265 -22 10 -76 33
-120 53 -44 19 -102 44 -130 57 -27 12 -59 26 -70 31 -11 5 -76 33 -144 64
-69 30 -126 55 -128 55 -2 0 -1 -6 4 -12z"/>
<path d="M3074 2988 c-52 -73 -474 -649 -529 -723 -144 -193 -385 -527 -385
-534 0 -4 6 -21 14 -37 22 -45 575 -1291 603 -1359 32 -77 43 -88 44 -44 0 18
2 41 4 49 1 8 6 47 10 85 3 39 8 84 10 100 2 17 7 59 10 95 3 36 7 76 10 90 2
14 7 57 10 96 3 39 7 80 9 90 2 10 7 55 11 98 4 43 8 86 10 95 1 9 6 50 10 91
4 41 9 82 10 90 1 8 6 51 10 94 4 43 8 86 10 96 2 9 6 50 9 92 4 41 8 85 11
96 2 11 6 53 10 94 3 40 8 84 10 98 2 14 7 54 10 90 4 36 9 76 10 90 2 14 6
61 10 105 4 44 8 87 10 95 2 8 6 44 9 80 14 141 17 166 21 190 2 14 7 57 10
95 4 39 8 83 10 100 2 16 7 61 10 100 4 38 9 84 11 100 11 84 16 145 12 145
-2 0 -18 -19 -34 -42z"/>
<path d="M3894 2965 c4 -38 9 -83 11 -100 3 -16 7 -57 10 -90 3 -33 7 -78 10
-100 2 -22 7 -65 10 -95 3 -30 7 -75 10 -100 9 -89 15 -146 20 -205 3 -33 7
-73 10 -90 2 -16 7 -64 10 -105 3 -41 8 -86 10 -100 4 -30 9 -72 30 -280 1
-14 6 -59 9 -100 4 -41 9 -88 11 -105 2 -16 7 -57 10 -90 3 -33 7 -78 10 -100
2 -22 7 -67 10 -100 4 -33 8 -73 10 -90 4 -32 16 -149 20 -200 1 -16 5 -55 9
-85 3 -30 8 -82 11 -115 3 -33 7 -73 10 -90 2 -16 7 -64 10 -105 3 -41 8 -86
10 -100 3 -14 7 -54 10 -89 6 -74 11 -83 24 -50 5 13 23 56 41 94 18 39 60
133 95 210 34 77 74 165 88 195 25 54 105 232 319 709 107 239 109 244 92 269
-9 14 -66 93 -127 176 -334 456 -612 836 -695 951 -52 72 -99 135 -104 140 -7
7 -8 -14 -4 -60z"/>
<path d="M466 1846 c15 -11 960 -696 1189 -862 11 -8 110 -80 220 -160 110
-80 214 -155 232 -167 17 -12 159 -114 314 -227 322 -234 315 -229 301 -203
-6 10 -72 157 -147 328 -75 171 -145 328 -155 350 -114 252 -340 770 -340 776
0 5 -8 9 -17 10 -10 0 -27 2 -38 4 -11 2 -50 7 -88 10 -38 4 -78 8 -89 10 -12
3 -51 7 -87 10 -36 3 -79 8 -96 10 -16 2 -64 6 -105 10 -41 4 -86 8 -100 10
-14 2 -74 9 -135 15 -60 6 -126 12 -145 15 -19 2 -64 7 -100 10 -36 3 -81 8
-100 10 -19 3 -82 9 -140 15 -138 14 -186 18 -240 25 -151 17 -156 17 -134 1z"/>
<path d="M6445 1849 c-33 -4 -89 -9 -125 -13 -36 -4 -81 -9 -100 -11 -19 -2
-62 -7 -95 -10 -33 -3 -76 -7 -95 -10 -19 -2 -62 -6 -95 -10 -33 -3 -103 -10
-155 -16 -92 -9 -142 -14 -242 -24 -82 -8 -152 -16 -178 -20 -14 -2 -59 -6
-100 -9 -41 -4 -84 -8 -96 -10 -11 -2 -56 -7 -100 -10 -102 -8 -144 -16 -144
-27 0 -5 -11 -32 -24 -61 -13 -29 -128 -282 -254 -563 -206 -458 -250 -555
-297 -660 -7 -16 -29 -65 -49 -108 -19 -43 -30 -74 -23 -71 7 4 147 105 312
224 165 120 608 439 985 711 377 271 721 519 765 551 116 84 115 84 170 123
41 29 46 35 25 33 -14 -2 -52 -6 -85 -9z"/>
</g>
</svg>
