<svg width="160" height="160" viewBox="0 0 160 160" fill="none" xmlns="http://www.w3.org/2000/svg">
<path d="M46.6066 5.97534L78.8912 61.6077V24.5195L46.6066 5.97534Z" fill="white"/>
<path d="M113.151 5.97534L80.8664 61.6077V24.5195L113.151 5.97534Z" fill="white"/>
<path d="M47.5942 4H112.163L79.8788 22.5441L47.5942 4Z" fill="white"/>
<path d="M138.12 23.2666L94.6691 70.9515L130.352 59.6324L138.12 23.2666Z" fill="white"/>
<path d="M158.025 86.4132L94.6691 72.9266L130.352 61.6074L158.025 86.4132Z" fill="white"/>
<path d="M140.095 24.2542L160 85.4257L132.327 60.6199L140.095 24.2542Z" fill="white"/>
<path d="M149.805 115.506L90.8186 89.4956L112.665 119.359L149.805 115.506Z" fill="white"/>
<path d="M95.3973 154.304L88.8433 90.4832L110.69 120.346L95.3973 154.304Z" fill="white"/>
<path d="M149.805 117.481L97.3727 155.291L112.665 121.334L149.805 117.481Z" fill="white"/>
<path d="M21.8801 23.2666L65.0881 70.9515L29.6478 59.6324L21.8801 23.2666Z" fill="white"/>
<path d="M1.97531 86.4132L65.0881 72.9266L29.6478 61.6074L1.97531 86.4132Z" fill="white"/>
<path d="M19.9048 24.2542L0 85.4257L27.6725 60.6199L19.9048 24.2542Z" fill="white"/>
<path d="M10.1952 115.506L69.1814 89.4956L47.3346 119.359L10.1952 115.506Z" fill="white"/>
<path d="M64.3599 154.304L71.1567 90.4832L49.31 120.346L64.3599 154.304Z" fill="white"/>
<path d="M10.1952 117.481L62.3846 155.291L47.3346 121.334L10.1952 117.481Z" fill="white"/>
</svg>
